<svg xmlns="http://www.w3.org/2000/svg" width="200" height="200" viewBox="0 0 200 200">
  <rect width="200" height="200" rx="20" fill="#1a1814"/>
  <line x1="100" y1="44" x2="100" y2="138" stroke="#c8a84b" stroke-width="1.5" stroke-linecap="round"/>
  <polygon points="100,40 104,50 96,50" fill="#c8a84b"/>
  <line x1="44" y1="68" x2="156" y2="68" stroke="#c8a84b" stroke-width="1.2" stroke-linecap="round"/>
  <line x1="44" y1="68" x2="20" y2="112" stroke="#c8a84b" stroke-width="1" stroke-linecap="round"/>
  <line x1="156" y1="68" x2="184" y2="124" stroke="#c8a84b" stroke-width="1" stroke-linecap="round"/>
  <path d="M6 112 Q20 100 34 112 Q20 124 6 112Z" fill="#c8a84b" opacity="0.9"/>
  <path d="M170 124 Q184 112 198 124 Q184 136 170 124Z" fill="#c8a84b" opacity="0.9"/>
  <line x1="79" y1="138" x2="121" y2="138" stroke="#c8a84b" stroke-width="2" stroke-linecap="round"/>
  <line x1="88" y1="130" x2="112" y2="130" stroke="#c8a84b" stroke-width="1" stroke-linecap="round" opacity="0.45"/>
  <line x1="100" y1="138" x2="100" y2="152" stroke="#c8a84b" stroke-width="1.5" stroke-linecap="round"/>
  <line x1="80" y1="152" x2="120" y2="152" stroke="#c8a84b" stroke-width="2" stroke-linecap="round"/>
  <text x="100" y="182" text-anchor="middle" font-family="'Times New Roman',Times,serif" font-size="18" fill="#FAF7F2" font-weight="400" letter-spacing="2">CaseDive</text>
</svg>
